<svg width="21" height="22" viewBox="0 0 21 22" fill="none" xmlns="http://www.w3.org/2000/svg">
<path d="M4.375 17.125H5.62188L14.175 8.57188L12.9281 7.325L4.375 15.8781V17.125ZM2.625 18.875V15.1562L14.175 3.62813C14.35 3.46771 14.5434 3.34375 14.7551 3.25625C14.9669 3.16875 15.1891 3.125 15.4219 3.125C15.6552 3.125 15.8812 3.16875 16.1 3.25625C16.3187 3.34375 16.5083 3.475 16.6687 3.65L17.8719 4.875C18.0469 5.03542 18.1746 5.225 18.2551 5.44375C18.3356 5.6625 18.3756 5.88125 18.375 6.1C18.375 6.33333 18.335 6.55588 18.2551 6.76763C18.1752 6.97938 18.0475 7.17246 17.8719 7.34687L6.34375 18.875H2.625ZM13.5406 7.95937L12.9281 7.325L14.175 8.57188L13.5406 7.95937Z" fill="#5CB85C"/>
</svg>
