<svg width="44" height="44" viewBox="0 0 44 44" fill="none" xmlns="http://www.w3.org/2000/svg">
<rect width="44" height="44" rx="10" fill="#86A693"/>
<path d="M30.9578 14.0406C28.7641 11.5656 25.5719 10 22 10C15.3719 10 10 15.3719 10 22H13C13 17.0266 17.0266 13 22 13C24.7422 13 27.175 14.2422 28.8203 16.1781L25.9984 19H34V10.9984L30.9578 14.0406ZM22 31C19.2578 31 16.825 29.7578 15.1797 27.8219L18.0016 25H10V33.0016L13.0422 29.9594C15.2359 32.4344 18.4328 34 22 34C28.6281 34 34 28.6281 34 22H31C31 26.9734 26.9734 31 22 31Z" fill="white"/>
</svg>
