<svg width="18" height="13" viewBox="0 0 18 13" fill="none" xmlns="http://www.w3.org/2000/svg">
<path d="M9 7C10.4048 7 11.6775 7.465 12.6113 8.11525C13.4985 8.734 14.25 9.6535 14.25 10.6427C14.25 11.1858 14.0183 11.6358 13.653 11.9703C13.3095 12.286 12.861 12.4908 12.399 12.6302C11.4757 12.91 10.26 13 9 13C7.74 13 6.52425 12.91 5.601 12.6302C5.139 12.4908 4.6905 12.286 4.34625 11.9703C3.9825 11.6365 3.75 11.1865 3.75 10.6435C3.75 9.65425 4.5015 8.73475 5.38875 8.116C6.3225 7.465 7.59525 7 9 7ZM14.25 7.75C15.033 7.75 15.744 8.00875 16.2698 8.37475C16.7498 8.71 17.25 9.26725 17.25 9.94675C17.25 10.3345 17.0813 10.6562 16.83 10.8865C16.6005 11.0972 16.317 11.221 16.0583 11.299C15.7058 11.4055 15.2895 11.4602 14.8575 11.4843C14.949 11.2255 15 10.9443 15 10.6427C15 9.4915 14.2808 8.5135 13.476 7.83475C13.7302 7.77848 13.9897 7.75007 14.25 7.75ZM3.75 7.75C4.01775 7.75 4.27725 7.78 4.524 7.83475C3.72 8.5135 3 9.4915 3 10.6427C3 10.9443 3.051 11.2255 3.1425 11.4843C2.7105 11.4602 2.295 11.4055 1.94175 11.299C1.683 11.221 1.3995 11.0972 1.16925 10.8865C1.03716 10.7684 0.931526 10.6236 0.859275 10.4618C0.787024 10.3 0.749786 10.1247 0.750001 9.9475C0.750001 9.26875 1.2495 8.71075 1.73025 8.3755C2.32481 7.96767 3.02901 7.74958 3.75 7.75ZM13.875 3.25C14.3723 3.25 14.8492 3.44754 15.2008 3.79917C15.5525 4.15081 15.75 4.62772 15.75 5.125C15.75 5.62228 15.5525 6.09919 15.2008 6.45083C14.8492 6.80246 14.3723 7 13.875 7C13.3777 7 12.9008 6.80246 12.5492 6.45083C12.1975 6.09919 12 5.62228 12 5.125C12 4.62772 12.1975 4.15081 12.5492 3.79917C12.9008 3.44754 13.3777 3.25 13.875 3.25ZM4.125 3.25C4.62228 3.25 5.0992 3.44754 5.45083 3.79917C5.80246 4.15081 6 4.62772 6 5.125C6 5.62228 5.80246 6.09919 5.45083 6.45083C5.0992 6.80246 4.62228 7 4.125 7C3.62772 7 3.15081 6.80246 2.79918 6.45083C2.44754 6.09919 2.25 5.62228 2.25 5.125C2.25 4.62772 2.44754 4.15081 2.79918 3.79917C3.15081 3.44754 3.62772 3.25 4.125 3.25ZM9 0.25C9.79565 0.25 10.5587 0.56607 11.1213 1.12868C11.6839 1.69129 12 2.45435 12 3.25C12 4.04565 11.6839 4.80871 11.1213 5.37132C10.5587 5.93393 9.79565 6.25 9 6.25C8.20435 6.25 7.44129 5.93393 6.87868 5.37132C6.31607 4.80871 6 4.04565 6 3.25C6 2.45435 6.31607 1.69129 6.87868 1.12868C7.44129 0.56607 8.20435 0.25 9 0.25Z" fill="white"/>
</svg>
