<svg width="14" height="14" viewBox="0 0 14 14" fill="none" xmlns="http://www.w3.org/2000/svg">
<path d="M4.93225 12.2281H13.75V13.7281H0.25V10.5458L7.675 3.12084L10.8565 6.30309L4.93225 12.2281ZM8.73475 2.06034L10.3263 0.46959C10.4669 0.328986 10.6576 0.25 10.8565 0.25C11.0554 0.25 11.2461 0.328986 11.3868 0.46959L13.5085 2.59059C13.5782 2.66024 13.6336 2.74296 13.6713 2.83401C13.709 2.92506 13.7285 3.02265 13.7285 3.12121C13.7285 3.21978 13.709 3.31737 13.6713 3.40842C13.6336 3.49947 13.5782 3.58218 13.5085 3.65184L11.917 5.24259L8.73475 2.06034Z" fill="white"/>
</svg>
