<?xml version="1.0" encoding="utf-8"?>
<!-- Uploaded to: SVG Repo, www.svgrepo.com, Generator: SVG Repo Mixer Tools -->
<svg width="800px" height="800px" viewBox="0 0 24 24" fill="#FFFFFF" xmlns="http://www.w3.org/2000/svg">
  <path fill-rule="evenodd" clip-rule="evenodd" d="M14.2929 4.29289C14 4.58579 14 5.05719 14 6C14 6.94281 14 7.41421 14.2929 7.70711C14.5858 8 15.0572 8 16 8H18C18.9428 8 19.4142 8 19.7071 7.70711C20 7.41421 20 6.94281 20 6C20 5.05719 20 4.58579 19.7071 4.29289C19.4142 4 18.9428 4 18 4H16C15.0572 4 14.5858 4 14.2929 4.29289ZM4.29289 16.2929C4 16.5858 4 17.0572 4 18C4 18.9428 4 19.4142 4.29289 19.7071C4.58579 20 5.05719 20 6 20H8C8.94281 20 9.41421 20 9.70711 19.7071C10 19.4142 10 18.9428 10 18C10 17.0572 10 16.5858 9.70711 16.2929C9.41421 16 8.94281 16 8 16H6C5.05719 16 4.58579 16 4.29289 16.2929ZM14 14C14 13.0572 14 12.5858 14.2929 12.2929C14.5858 12 15.0572 12 16 12H18C18.9428 12 19.4142 12 19.7071 12.2929C20 12.5858 20 13.0572 20 14V18C20 18.9428 20 19.4142 19.7071 19.7071C19.4142 20 18.9428 20 18 20H16C15.0572 20 14.5858 20 14.2929 19.7071C14 19.4142 14 18.9428 14 18V14ZM4.29289 4.29289C4 4.58579 4 5.05719 4 6V10C4 10.9428 4 11.4142 4.29289 11.7071C4.58579 12 5.05719 12 6 12H8C8.94281 12 9.41421 12 9.70711 11.7071C10 11.4142 10 10.9428 10 10V6C10 5.05719 10 4.58579 9.70711 4.29289C9.41421 4 8.94281 4 8 4H6C5.05719 4 4.58579 4 4.29289 4.29289Z" fill="#FFFFFF"/>
  <path fill-rule="evenodd" clip-rule="evenodd" d="M4.82324 4.82324L4.82567 4.82187C4.8276 4.82086 4.83092 4.81924 4.83596 4.81717C4.85774 4.80821 4.90611 4.79291 5.00266 4.77993C5.21339 4.7516 5.50739 4.75001 6 4.75001H8C8.49261 4.75001 8.78661 4.7516 8.99734 4.77993C9.09389 4.79291 9.14225 4.80821 9.16403 4.81717C9.16908 4.81924 9.17239 4.82086 9.17433 4.82187L9.17676 4.82324L9.17814 4.82568C9.17915 4.82761 9.18077 4.83093 9.18284 4.83597C9.1918 4.85775 9.20709 4.90611 9.22008 5.00267C9.24841 5.21339 9.25 5.5074 9.25 6.00001V10C9.25 10.4926 9.24841 10.7866 9.22008 10.9973C9.20709 11.0939 9.1918 11.1423 9.18284 11.164C9.18077 11.1691 9.17915 11.1724 9.17814 11.1743L9.17676 11.1768L9.17433 11.1781C9.17239 11.1792 9.16908 11.1808 9.16403 11.1828C9.14225 11.1918 9.09389 11.2071 8.99734 11.2201C8.78661 11.2484 8.49261 11.25 8 11.25H6C5.50739 11.25 5.21339 11.2484 5.00266 11.2201C4.90611 11.2071 4.85774 11.1918 4.83596 11.1828C4.83092 11.1808 4.8276 11.1792 4.82567 11.1781L4.82324 11.1768L4.82186 11.1743C4.82085 11.1724 4.81923 11.1691 4.81716 11.164C4.8082 11.1423 4.79291 11.0939 4.77992 10.9973C4.75159 10.7866 4.75 10.4926 4.75 10V6.00001C4.75 5.5074 4.75159 5.21339 4.77992 5.00267C4.79291 4.90611 4.8082 4.85775 4.81716 4.83597C4.81923 4.83093 4.82085 4.82761 4.82186 4.82568L4.82324 4.82324ZM5.95525 3.25C5.97013 3.25001 5.98504 3.25001 6 3.25001H8C8.01496 3.25001 8.02987 3.25001 8.04475 3.25C8.47756 3.24995 8.8744 3.24991 9.19721 3.29331C9.55269 3.3411 9.92841 3.45355 10.2374 3.76257C10.5465 4.07159 10.6589 4.44732 10.7067 4.8028C10.7501 5.12561 10.7501 5.52245 10.75 5.95526C10.75 5.97014 10.75 5.98505 10.75 6.00001V10C10.75 10.015 10.75 10.0299 10.75 10.0448C10.7501 10.4776 10.7501 10.8744 10.7067 11.1972C10.6589 11.5527 10.5465 11.9284 10.2374 12.2374C9.92841 12.5465 9.55269 12.6589 9.19721 12.7067C8.87439 12.7501 8.47756 12.7501 8.04474 12.75C8.02987 12.75 8.01496 12.75 8 12.75H6C5.98504 12.75 5.97013 12.75 5.95525 12.75C5.52245 12.7501 5.12561 12.7501 4.8028 12.7067C4.44732 12.6589 4.07159 12.5465 3.76257 12.2374C3.45355 11.9284 3.3411 11.5527 3.29331 11.1972C3.24991 10.8744 3.24995 10.4776 3.25 10.0448C3.25001 10.0299 3.25001 10.015 3.25001 10V6.00001C3.25001 5.98505 3.25001 5.97014 3.25001 5.95526C3.24991 5.52245 3.24995 5.12561 3.29331 4.8028C3.3411 4.44732 3.45355 4.07159 3.76257 3.76257C4.07159 3.45355 4.44732 3.3411 4.8028 3.29331C5.12561 3.24991 5.52245 3.24995 5.95525 3.25Z" fill="#FFFFFF"/>
</svg>
